<svg xmlns="http://www.w3.org/2000/svg" version="1.1" xmlns:xlink="http://www.w3.org/1999/xlink" xmlns:svgjs="http://svgjs.dev/svgjs" width="1500" height="223" viewBox="0 0 1500 223"><g transform="matrix(1,0,0,1,-0.9090909090909918,-0.4779959841841759)"><svg viewBox="0 0 396 59" data-background-color="#ffffff" preserveAspectRatio="xMidYMid meet" height="223" width="1500" xmlns="http://www.w3.org/2000/svg" xmlns:xlink="http://www.w3.org/1999/xlink"><g id="tight-bounds" transform="matrix(1,0,0,1,0.2400000000000091,0.12646530523258548)"><svg viewBox="0 0 395.52 58.747069389534836" height="58.747069389534836" width="395.52"><g><svg viewBox="0 0 517.7056268515391 76.89545" height="58.747069389534836" width="395.52"><g><svg viewBox="0 0 517.7056268515391 76.89545" height="76.89545" width="517.7056268515391"><g id="textblocktransform"><svg viewBox="0 0 517.7056268515391 76.89545" height="76.89545" width="517.7056268515391" id="textblock"><g><svg viewBox="0 0 517.7056268515391 76.89545" height="76.89545" width="517.7056268515391"><g><svg><g></g><g></g></svg></g><g><svg><g></g><g><svg></svg></g></svg></g><g id="text-0"><svg viewBox="0 0 517.7056268515391 76.89545" height="76.89545" width="517.7056268515391"><g><svg xmlns="http://www.w3.org/2000/svg" xmlns:xlink="http://www.w3.org/1999/xlink" version="1.1" x="0" y="0" viewBox="2.781 11.053943726273218 74.938 55.391056273726775" enable-background="new 0 0 80.5 77.5" xml:space="preserve" height="76.89545" width="104.03107685153915" class="icon-cg-0" data-fill-palette-color="accent" id="cg-0"><g fill="#4d7e3e" data-fill-palette-color="accent"><path d="M31.376 66.445c-0.063 0-0.127-0.003-0.191-0.01-0.821-0.099-1.44-0.792-1.44-1.619V35.042l-2.295 5.926c-0.244 0.627-0.846 1.04-1.52 1.04H4.41c-0.9 0-1.629-0.729-1.629-1.629s0.729-1.629 1.629-1.629h20.405l5.04-13.01c0.283-0.734 1.056-1.146 1.818-1.014 0.772 0.145 1.33 0.818 1.33 1.602v24.535L42.13 12.31c0.189-0.805 0.959-1.352 1.774-1.242 0.821 0.095 1.439 0.791 1.439 1.618v29.651l3.979-10.188c0.245-0.625 0.846-1.037 1.518-1.037H76.09c0.9 0 1.629 0.729 1.629 1.629S76.99 34.37 76.09 34.37H51.952l-6.72 17.21c-0.286 0.729-1.053 1.146-1.82 1.009-0.768-0.144-1.327-0.818-1.327-1.601V26.639l-9.127 38.552C32.784 65.933 32.122 66.445 31.376 66.445z" fill="#4d7e3e" data-fill-palette-color="accent"></path></g></svg></g><g transform="matrix(1,0,0,1,122.18562685153915,13.737473915472588)"><svg width="395.52" viewBox="5.78 -36.93 380.32000000000005 47.53" height="49.42050216905482" data-palette-color="#4d7e3e"><path d="M23.2-23.8L23.2-23.8Q23.2-26.48 22.15-28.04 21.1-29.6 19.28-30.29 17.45-30.98 15.1-30.98L15.1-30.98 10.13-30.98 10.13-16.28 14.93-16.28Q17.35-16.28 19.2-16.94 21.05-17.6 22.13-19.24 23.2-20.88 23.2-23.8ZM27.85-23.85L27.85-23.85Q27.85-19.83 26.14-17.4 24.43-14.98 21.43-13.88 18.43-12.78 14.53-12.78L14.53-12.78 10.13-12.78 10.13 0 5.78 0 5.78-34.43 14.58-34.43Q20.73-34.43 24.29-31.84 27.85-29.25 27.85-23.85ZM48.92 0L35.27 0 35.27-3.23 39.37-3.23 39.37-23.1 35.27-23.1 35.27-26.33 42.57-26.33 43.35-20.1Q44.87-23.35 47.05-25.13 49.22-26.9 52.8-26.9L52.8-26.9Q53.9-26.9 54.76-26.74 55.62-26.58 56.52-26.33L56.52-26.33 55.3-22.58Q54.47-22.8 53.8-22.91 53.12-23.03 52.25-23.03L52.25-23.03Q49.22-23.03 47.05-20.88 44.87-18.73 43.57-14.38L43.57-14.38 43.57-3.23 48.92-3.23 48.92 0ZM55.92-17.43L52.47-17.43 52.47-23.15 52.9-26.33 56.52-26.33 55.92-17.43ZM75.05-26.88L75.05-26.88Q78.77-26.88 81.28-25.19 83.8-23.5 85.06-20.43 86.32-17.35 86.32-13.18L86.32-13.18Q86.32-9.15 85.02-6.05 83.72-2.95 81.21-1.19 78.7 0.58 75 0.58L75 0.58Q71.3 0.58 68.77-1.13 66.25-2.83 64.96-5.91 63.67-9 63.67-13.13L63.67-13.13Q63.67-17.2 64.97-20.3 66.27-23.4 68.81-25.14 71.34-26.88 75.05-26.88ZM75.05-23.45L75.05-23.45Q71.65-23.45 69.91-20.94 68.17-18.43 68.17-13.13L68.17-13.13Q68.17-7.93 69.88-5.4 71.59-2.88 75-2.88L75-2.88Q78.4-2.88 80.11-5.4 81.82-7.93 81.82-13.18L81.82-13.18Q81.82-18.43 80.12-20.94 78.42-23.45 75.05-23.45ZM106.79-26.88L106.79-26.88Q110.29-26.88 112.38-25.18 114.47-23.48 115.39-20.39 116.32-17.3 116.32-13.18L116.32-13.18Q116.32-9.2 115.21-6.09 114.09-2.98 111.84-1.2 109.59 0.58 106.17 0.58L106.17 0.58Q101.84 0.58 99.22-2.48L99.22-2.48 99.22 10.08 95.02 10.6 95.02-26.33 98.59-26.33 98.94-22.65Q100.39-24.68 102.41-25.78 104.42-26.88 106.79-26.88ZM105.79-23.5L105.79-23.5Q103.62-23.5 101.96-22.19 100.29-20.88 99.22-19.28L99.22-19.28 99.22-6.23Q100.24-4.7 101.81-3.81 103.37-2.93 105.24-2.93L105.24-2.93Q108.52-2.93 110.17-5.43 111.82-7.93 111.82-13.2L111.82-13.2Q111.82-16.65 111.17-18.94 110.52-21.23 109.19-22.36 107.87-23.5 105.79-23.5ZM146.02-11.68L128.31-11.68Q128.44-8.63 129.49-6.69 130.54-4.75 132.27-3.84 133.99-2.93 136.02-2.93L136.02-2.93Q138.04-2.93 139.68-3.53 141.31-4.13 143.04-5.3L143.04-5.3 145.02-2.53Q143.17-1.07 140.8-0.25 138.44 0.58 135.97 0.58L135.97 0.58Q132.14 0.58 129.44-1.15 126.74-2.88 125.33-5.96 123.92-9.05 123.92-13.13L123.92-13.13Q123.92-17.13 125.34-20.23 126.77-23.33 129.34-25.1 131.92-26.88 135.42-26.88L135.42-26.88Q138.74-26.88 141.14-25.31 143.54-23.75 144.83-20.86 146.12-17.98 146.12-13.98L146.12-13.98Q146.12-13.3 146.09-12.71 146.06-12.13 146.02-11.68L146.02-11.68ZM135.47-23.43L135.47-23.43Q132.54-23.43 130.58-21.35 128.62-19.28 128.34-14.93L128.34-14.93 142.06-14.93Q141.99-19.15 140.22-21.29 138.44-23.43 135.47-23.43ZM168.91 0L155.26 0 155.26-3.23 159.36-3.23 159.36-23.1 155.26-23.1 155.26-26.33 162.56-26.33 163.34-20.1Q164.86-23.35 167.04-25.13 169.21-26.9 172.79-26.9L172.79-26.9Q173.89-26.9 174.75-26.74 175.61-26.58 176.51-26.33L176.51-26.33 175.29-22.58Q174.46-22.8 173.79-22.91 173.11-23.03 172.24-23.03L172.24-23.03Q169.21-23.03 167.04-20.88 164.86-18.73 163.56-14.38L163.56-14.38 163.56-3.23 168.91-3.23 168.91 0ZM175.91-17.43L172.46-17.43 172.46-23.15 172.89-26.33 176.51-26.33 175.91-17.43ZM204.29-4.17L205.91-1.33Q204.56-0.43 202.64 0.08 200.71 0.58 198.86 0.58L198.86 0.58Q194.61 0.58 192.31-1.65 190.01-3.88 190.01-7.38L190.01-7.38 190.01-23.08 183.96-23.08 183.96-26.33 190.01-26.33 190.01-32.3 194.21-32.8 194.21-26.33 203.31-26.33 202.81-23.08 194.21-23.08 194.21-7.43Q194.21-5.23 195.37-4.08 196.54-2.93 199.24-2.93L199.24-2.93Q200.71-2.93 201.96-3.28 203.21-3.63 204.29-4.17L204.29-4.17ZM232.56-26.33L236.91-26.33 227.66 0.18Q226.73 2.85 225.32 5.08 223.91 7.3 221.65 8.76 219.38 10.23 215.91 10.58L215.91 10.58 215.26 7.23Q217.98 6.78 219.56 5.85 221.13 4.93 222.05 3.48 222.96 2.02 223.66 0L223.66 0 222.26 0 213.06-26.33 217.56-26.33 225.11-3.2 232.56-26.33ZM263.18-23.8L263.18-23.8Q263.18-26.48 262.13-28.04 261.08-29.6 259.25-30.29 257.43-30.98 255.08-30.98L255.08-30.98 250.11-30.98 250.11-16.28 254.91-16.28Q257.33-16.28 259.18-16.94 261.03-17.6 262.11-19.24 263.18-20.88 263.18-23.8ZM267.83-23.85L267.83-23.85Q267.83-19.83 266.12-17.4 264.41-14.98 261.41-13.88 258.41-12.78 254.51-12.78L254.51-12.78 250.11-12.78 250.11 0 245.76 0 245.76-34.43 254.56-34.43Q260.71-34.43 264.27-31.84 267.83-29.25 267.83-23.85ZM275-26.33L279.2-26.33 279.2-7.68Q279.2-5.08 280.28-3.93 281.35-2.78 283.63-2.78L283.63-2.78Q285.8-2.78 287.74-4.01 289.68-5.25 290.75-6.95L290.75-6.95 290.75-26.33 294.95-26.33 294.95 0 291.38 0 291.03-3.55Q289.48-1.55 287.2-0.49 284.93 0.58 282.6 0.58L282.6 0.58Q278.78 0.58 276.89-1.46 275-3.5 275-7.18L275-7.18 275-26.33ZM302.98-36.93L315.25-36.93 315.25-6.5Q315.25-4.55 316.46-3.74 317.68-2.93 319.6-2.93L319.6-2.93Q320.8-2.93 321.88-3.18 322.95-3.43 324.03-3.85L324.03-3.85 325.15-0.78Q324.08-0.25 322.49 0.16 320.9 0.58 318.9 0.58L318.9 0.58Q315.4 0.58 313.23-1.36 311.05-3.3 311.05-6.73L311.05-6.73 311.05-33.6 302.98-33.6 302.98-36.93ZM343.95-2.9L343.95-2.9Q346.97-2.9 348.74-4.04 350.5-5.18 350.5-7.08L350.5-7.08Q350.5-8.28 350.06-9.15 349.62-10.03 348.27-10.73 346.92-11.43 344.12-12.13L344.12-12.13Q341.4-12.8 339.39-13.69 337.37-14.58 336.26-16 335.15-17.43 335.15-19.7L335.15-19.7Q335.15-21.93 336.41-23.54 337.67-25.15 339.92-26.01 342.17-26.88 345.15-26.88L345.15-26.88Q348.32-26.88 350.69-26.04 353.05-25.2 354.7-23.98L354.7-23.98 352.85-21.13Q351.35-22.15 349.55-22.81 347.75-23.48 345.2-23.48L345.2-23.48Q342.1-23.48 340.8-22.51 339.5-21.55 339.5-20.03L339.5-20.03Q339.5-18.88 340.14-18.11 340.77-17.35 342.3-16.74 343.82-16.13 346.5-15.4L346.5-15.4Q349.07-14.73 350.99-13.78 352.9-12.83 353.97-11.28 355.05-9.73 355.05-7.28L355.05-7.28Q355.05-4.48 353.45-2.74 351.85-1 349.31-0.21 346.77 0.58 343.95 0.58L343.95 0.58Q340.37 0.58 337.86-0.46 335.35-1.5 333.65-2.98L333.65-2.98 336.05-5.75Q337.6-4.48 339.61-3.69 341.62-2.9 343.95-2.9ZM386-11.68L368.3-11.68Q368.42-8.63 369.47-6.69 370.52-4.75 372.25-3.84 373.97-2.93 376-2.93L376-2.93Q378.02-2.93 379.66-3.53 381.3-4.13 383.02-5.3L383.02-5.3 385-2.53Q383.15-1.07 380.78-0.25 378.42 0.58 375.95 0.58L375.95 0.58Q372.12 0.58 369.42-1.15 366.72-2.88 365.31-5.96 363.9-9.05 363.9-13.13L363.9-13.13Q363.9-17.13 365.32-20.23 366.75-23.33 369.32-25.1 371.9-26.88 375.4-26.88L375.4-26.88Q378.72-26.88 381.12-25.31 383.52-23.75 384.81-20.86 386.1-17.98 386.1-13.98L386.1-13.98Q386.1-13.3 386.07-12.71 386.05-12.13 386-11.68L386-11.68ZM375.45-23.43L375.45-23.43Q372.52-23.43 370.56-21.35 368.6-19.28 368.32-14.93L368.32-14.93 382.05-14.93Q381.97-19.15 380.2-21.29 378.42-23.43 375.45-23.43Z" opacity="1" transform="matrix(1,0,0,1,0,0)" fill="#4d7e3e" class="wordmark-text-0" data-fill-palette-color="primary"></path></svg></g></svg></g></svg></g></svg></g></svg></g></svg></g><defs></defs></svg><rect width="395.52" height="58.747069389534836" fill="none" stroke="none" visibility="hidden"></rect></g></svg></g></svg>